<svg class="icon-igi" viewBox="0 0 44 44" fill="none" xmlns="http://www.w3.org/2000/svg">
  <g transform="translate(10, 5) scale(0.6)">
    <polygon points="20,0 35,8 30,22 10,22 5,8" fill="none" stroke="#c9a15a" stroke-width="2" stroke-linejoin="round"/>
    <polyline points="5,8 35,8" fill="none" stroke="#c9a15a" stroke-width="1.5"/>
    <polyline points="20,0 15,8 20,22 25,8 20,0" fill="none" stroke="#c9a15a" stroke-width="1.5" stroke-linejoin="round"/>
    <line x1="5" y1="8" x2="20" y2="22" stroke="#c9a15a" stroke-width="1.5"/>
    <line x1="35" y1="8" x2="20" y2="22" stroke="#c9a15a" stroke-width="1.5"/>
  </g>
  <path d="M10 22H14M12 22V35M10 35H14" stroke="#1c1c1c" stroke-width="2.2" stroke-linecap="round" stroke-linejoin="round"/>
  <path d="M26 25.5C25.2 23 23 22 20.5 22C17.5 22 15 24.5 15 28.5C15 32.5 17.5 35 20.5 35C23.5 35 26 33 26 30H20.5" stroke="#1c1c1c" stroke-width="2.2" stroke-linecap="round" stroke-linejoin="round"/>
  <path d="M28 22H32M30 22V35M28 35H32" stroke="#1c1c1c" stroke-width="2.2" stroke-linecap="round" stroke-linejoin="round"/>
  <text x="21" y="41" text-anchor="middle" font-size="4.2" font-family="'Work Sans', sans-serif" font-weight="700" letter-spacing="1" fill="#c9a15a">CERTIFIED</text>
</svg>
